{"title":"Twilight (2008) Nordic DVDrip (Optional Nordic subtitles)","uid":4926574,"size":731985679,"categoryP":"video","categoryS":"movies","magnet":"?xt=urn:btih:2f3647c191086bfebb72a50866d6a1d621255089&amp;dn=Twilight+%282008%29+Nordic+DVDrip+%28Optional+Nordic+subtitles%29&amp;tr=udp%3A%2F%2Ftracker.openbittorrent.com%3A80&amp;tr=udp%3A%2F%2Fopen.demonii.com%3A1337&amp;tr=udp%3A%2F%2Ftracker.coppersurfer.tk%3A6969&amp;tr=udp%3A%2F%2Fexodus.desync.com%3A6969","seeders":1,"leechers":0,"uploader":"Kuthumi","files":-1,"time":1243871074,"description":"aka\ntwilight 2008\ntwilight.2008\ntwilight (2008) &lt;a href=&quot;\nhttp://www.imdb.com/title/tt1099212/&quot; rel=&quot;nofollow&quot; target=&quot;_NEW&quot;&gt;\nhttp://www.imdb.com/title/tt1099212/&lt;/a&gt;\n\nOptional subtitles in separate idx/sub files (Work in Windows Media Player etc., see enclosed Note): Danish, Finnish, Norwegian, Swedish.\n\nA teenage girl risks everything when she falls in love with a vampire.\nI made this 700 Mb rip for those of you who want the subtitles and cannot handle the full 4.5 Giga. Or those who just want a good 700 Mb rip. Thanks to 'dong1974' for uploading the DVD.\n\nWidescreen DVDrip XviD 2-pass 704x288, great stereo sound AC3.\nRuns well in both my standalone DivX players.\n\nFormat/Info                      : Audio Video Interleave\nFile size                        : 694 MiB\nDuration                         : 1h 56mn\nOveral bit rate                  : 831 Kbps\n\nVideo\nFormat                           : MPEG-4 Visual\nFormat profile                   : Streaming Video@L1\nFormat settings, BVOP            : Yes\nFormat settings, QPel            : No\nFormat settings, GMC             : No warppoints\nFormat settings, Matrix          : Default\nMuxing mode                      : Packet Bitstream\nCodec ID                         : XVID\nCodec ID/Hint                    : XviD\nDuration                         : 1h 56mn\nBit rate                         : 694 Kbps\nWidth                            : 704 pixels\nHeight                           : 288 pixels\nDisplay aspect ratio             : 2.444\nFrame rate                       : 25.000 fps\nResolution                       : 8 bits\nColorimetry                      : 4:2:0\nScan type                        : Progressive\nBits/(Pixel*Frame)               : 0.137\nStream size                      : 579 MiB\nWriting library                  : XviD 1.2.0.dev47 (UTC 2006-11-01)\n\nAudio\nFormat                           : MPEG Audio\nFormat version                   : Version 1\nFormat profile                   : Layer 3\nCodec ID                         : 55\nCodec ID/Hint                    : MP3\nDuration                         : 1h 56mn\nBit rate mode                    : Constant\nBit rate                         : 128 Kbps\nMinimum bit rate                 : 128 Kbps\nChannel(s)                       : 2 channels\nSampling rate                    : 48.0 KHz\nResolution                       : 16 bits\nStream size                      : 107 MiB\nWriting library                  : LAME3.97 \nEncoding settings                : CBR\n\nSource: PAL native (note that PAL/NTSC will give no problems for avi files).","torrent":{"xt":"urn:btih:2f3647c191086bfebb72a50866d6a1d621255089","amp;dn":"Twilight+%282008%29+Nordic+DVDrip+%28Optional+Nordic+subtitles%29","amp;tr":["udp%3A%2F%2Ftracker.openbittorrent.com%3A80","udp%3A%2F%2Fopen.demonii.com%3A1337","udp%3A%2F%2Ftracker.coppersurfer.tk%3A6969","udp%3A%2F%2Fexodus.desync.com%3A6969"],"infoHash":"2f3647c191086bfebb72a50866d6a1d621255089","infoHashBuffer":{"type":"Buffer","data":[47,54,71,193,145,8,107,254,187,114,165,8,102,214,161,214,33,37,80,137]},"announce":[],"urlList":[]}}